# xmcd CD database file
#
# Track frame offsets:
#	150
#	16810
#	40294
#	48246
#	69515
#	86143
#	104507
#	119140
#	132934
#	159027
#	181470
#	220556
#
# Disc length: 3814 seconds
#
# Revision: 1
# Processed by: cddbd v1.5.2PL0 Copyright (c) Steve Scherf et al.
# Submitted via: CDex 1.51
#
DISCID=a00ee40c
DTITLE=Antonis Anissegos and Thymios Atzakas - σώμα
DYEAR=2009
DGENRE=Jazz
TTITLE0=duo δενξερωμε
TTITLE1=trio1 τρικηκαιδ
TTITLE2=duo ιαστηματα
TTITLE3=duo ουτεκαιτο
TTITLE4=trio1 υςρυθμους
TTITLE5=duo τωνεγχορδ
TTITLE6=trio1 ωνκαιτωντ
TTITLE7=duo υμπανωνδε
TTITLE8=duo νξερωναμε
TTITLE9=trio1 τρωτουςια
TTITLE10=duo μβουςκαιτ
TTITLE11=Ταινια 1
EXTD=YEAR: 2009
EXTT0=
EXTT1=
EXTT2=
EXTT3=
EXTT4=
EXTT5=
EXTT6=
EXTT7=
EXTT8=
EXTT9=
EXTT10=
EXTT11=
PLAYORDER=
